PathFileType	4	(X/Y/Z)	C:/Users/opensim2020/Desktop/walking_exp_matlab/subject03_walking14_straight_02.trc	
DataRate	CameraRate	NumFrames	NumMarkers	Units	OrigDataRate	OrigDataStartFrame	OrigNumFrames	
100.00	100.00	4	47	mm	100.00	1044	168	
Frame#	Time	LFHD			RFHD			LBHD			RBHD			C7			T10			CLAV			STRN			RBAK			LSHO			LUPA			LELB			LFRM			LWRA			LWRB			LFIN			RSHO			RUPA			RELB			RFRM			RWRA			RWRB			RFIN			LASI			RASI			LPSI			RPSI			LTHI			LKNE			LTIB			LANK			LHEE			LTOE			RTHI			RKNE			RTIB			RANK			RHEE			RTOE			*39			*40			*41			*42			*43			*44			*45			*46			
		X1	Y1	Z1	X2	Y2	Z2	X3	Y3	Z3	X4	Y4	Z4	X5	Y5	Z5	X6	Y6	Z6	X7	Y7	Z7	X8	Y8	Z8	X9	Y9	Z9	X10	Y10	Z10	X11	Y11	Z11	X12	Y12	Z12	X13	Y13	Z13	X14	Y14	Z14	X15	Y15	Z15	X16	Y16	Z16	X17	Y17	Z17	X18	Y18	Z18	X19	Y19	Z19	X20	Y20	Z20	X21	Y21	Z21	X22	Y22	Z22	X23	Y23	Z23	X24	Y24	Z24	X25	Y25	Z25	X26	Y26	Z26	X27	Y27	Z27	X28	Y28	Z28	X29	Y29	Z29	X30	Y30	Z30	X31	Y31	Z31	X32	Y32	Z32	X33	Y33	Z33	X34	Y34	Z34	X35	Y35	Z35	X36	Y36	Z36	X37	Y37	Z37	X38	Y38	Z38	X39	Y39	Z39	X40	Y40	Z40	X41	Y41	Z41	X42	Y42	Z42	X43	Y43	Z43	X44	Y44	Z44	X45	Y45	Z45	X46	Y46	Z46	X47	Y47	Z47	

1	0.000	-898.45648	1166.22144	1598.46484	-1029.97424	1184.59192	1605.99146	-889.80792	1285.89929	1534.11841	-1019.76605	1298.35059	1541.71680	-945.68292	1301.15344	1383.81238	-948.11835	1333.91003	1074.78064	-962.43652	1177.41321	1310.24548	-959.61292	1131.92542	1144.39331	-1026.33447	1362.09534	1209.33655	-802.49127	1204.82458	1350.19861	-732.31824	1170.52771	1160.49280	-730.75098	1125.67871	1046.47449	-763.60938	1037.65332	962.16235	-826.84412	962.92395	890.32233	-774.71021	969.47675	871.60522	-807.08044	907.01587	827.10254	-1114.49341	1247.91101	1331.17078	-1175.28296	1304.44336	1113.46021	-1184.65686	1321.18982	1000.75629	-1185.22302	1355.81421	867.29315	-1152.92554	1359.56104	765.08820	-1192.67688	1396.92773	775.06287	-1177.11267	1411.51721	699.70740	-845.10687	1176.70422	900.88666	-1082.06873	1175.59802	917.09784	-897.36261	1336.86597	931.42395	-1044.75940	1337.12231	942.69244	-825.02631	1293.43176	611.30249	-869.56940	1347.00281	442.11639	-870.02240	1469.31799	283.23834	-915.79694	1575.78418	100.53629	-946.21594	1630.05200	84.17039	-964.39392	1447.90271	27.09469	-1145.92224	1168.84827	629.18896	-1109.78589	1087.23621	471.05832	-1124.07312	1063.52441	283.84747	-1089.58557	1004.70776	70.93626	-1037.07605	1036.75574	29.55441	-1069.74036	858.14020	65.47272	-936.48187	1264.11914	1645.15198																					 
2	0.010	-900.16675	1153.04297	1598.06519	-1031.77991	1171.16394	1605.42102	-891.66101	1272.69946	1533.95837	-1021.60077	1285.03491	1541.37659	-947.54449	1288.06616	1383.02600	-949.49719	1319.38550	1073.75647	-964.04474	1163.82153	1309.99902	-961.12445	1117.68542	1144.28198	-1027.93823	1348.09814	1208.30981	-804.11487	1192.17261	1349.94324	-733.41656	1158.80066	1160.12830	-731.73090	1114.28577	1046.18213	-764.88605	1025.19177	963.42352	-828.65442	949.40204	893.30438	-776.73047	955.82568	874.07391	-809.29565	892.44501	831.06256	-1116.11182	1234.35352	1330.72961	-1176.93127	1290.79541	1113.08130	-1186.29834	1307.59497	1000.44025	-1186.80334	1342.60449	867.04321	-1154.53918	1346.69055	764.91205	-1194.32300	1383.96790	774.97369	-1178.92871	1398.58362	699.54736	-846.55176	1162.26135	900.32385	-1083.66138	1160.27551	917.10461	-899.29340	1322.18274	930.81775	-1046.48279	1322.11023	942.00739	-825.64374	1279.37793	610.63464	-868.86627	1332.98328	441.17465	-869.39301	1459.96240	285.04825	-914.41034	1572.19568	105.93855	-945.29907	1626.46899	91.67432	-964.21399	1447.41040	26.88443	-1145.80334	1151.60559	629.66693	-1108.99695	1070.85950	471.34897	-1122.49072	1052.49951	281.70822	-1087.07898	1001.32190	67.71643	-1035.03418	1035.40356	27.62167	-1065.12329	855.45276	55.81597	-938.81860	1250.71790	1644.69800																					 
3	0.020	-901.78754	1139.81653	1597.93469	-1033.51367	1157.66492	1605.05811	-893.39868	1259.66187	1534.03040	-1023.40472	1271.76074	1541.30737	-949.35797	1275.00391	1382.43750	-951.17432	1304.59546	1072.97400	-965.62488	1150.08948	1309.98376	-962.64380	1103.24170	1144.70325	-1029.59961	1333.98230	1207.31348	-805.75299	1179.41333	1349.80249	-734.49042	1146.85901	1159.84167	-732.50519	1102.98462	1045.86768	-765.94110	1013.20355	964.54047	-830.19482	936.52386	895.89545	-778.48102	942.61328	876.16638	-811.19855	878.49213	834.53369	-1117.88110	1220.80591	1330.60205	-1178.67932	1276.84546	1112.81458	-1187.96155	1293.64111	1000.22632	-1188.56946	1328.78186	866.89063	-1156.24365	1332.93787	764.75049	-1196.09167	1370.14563	774.81708	-1180.97070	1384.57349	699.40289	-847.93732	1147.35706	899.90350	-1085.08289	1144.87402	917.39734	-901.17084	1307.66089	930.35620	-1048.21924	1306.96436	941.78119	-826.06830	1264.74683	609.87073	-867.96295	1318.13098	439.87836	-868.69446	1449.88977	286.93103	-913.88074	1567.05481	111.27858	-944.49280	1621.85461	99.72000	-964.05426	1446.85339	26.74689	-1145.98474	1133.99670	630.30524	-1108.68872	1054.78687	471.52747	-1120.43298	1041.61646	280.31982	-1086.73718	994.82825	67.31674	-1035.10291	1032.67676	30.41458	-1059.95154	849.67023	42.46465	-940.31635	1237.23438	1644.97205																					 
4	0.030	-903.32111	1126.57324	1598.32153	-1035.16199	1144.21118	1605.40527	-895.12775	1246.54700	1534.49451	-1025.18628	1258.27026	1541.67139	-951.24268	1262.06128	1382.33252	-953.08337	1289.80493	1072.64966	-967.27411	1136.40894	1310.55847	-964.26416	1088.75806	1145.60059	-1031.24841	1319.78943	1206.51270	-807.24103	1166.65161	1350.03320	-735.57886	1134.98755	1159.67358	-733.10620	1091.71204	1045.52197	-766.93103	1001.46252	965.47272	-831.48071	923.98236	898.20068	-779.95020	930.13647	877.93585	-812.74121	865.21320	837.52045	-1119.68799	1207.19153	1330.77173	-1180.54163	1262.62378	1112.77539	-1189.75598	1279.23999	1000.16943	-1190.30212	1314.18701	866.71936	-1158.15344	1318.43372	764.68726	-1197.97437	1355.50562	774.68573	-1183.12292	1369.51477	699.23291	-849.27985	1132.31592	899.68713	-1086.44641	1129.52100	917.89099	-902.85999	1292.99597	930.06360	-1049.86731	1291.37415	942.06177	-826.26172	1249.40906	609.10504	-866.93683	1302.09985	438.47025	-868.11475	1438.77795	289.09830	-912.85071	1561.35828	117.82623	-943.74774	1615.95142	108.90286	-963.98914	1446.13135	26.70024	-1146.63062	1116.92957	631.95355	-1108.65295	1039.33777	472.57703	-1120.10181	1029.03564	281.38824	-1086.77136	986.62640	67.21429	-1037.82971	1029.44641	32.73348	-1056.03333	843.88165	37.14672	-942.87494	1223.88098	1645.47900																					 
